<svg width="80" height="80" viewBox="0 0 80 80" fill="none" xmlns="http://www.w3.org/2000/svg">
  <!-- Background Circle -->
  <circle cx="40" cy="40" r="36" fill="#0EA5E9" />
  <circle cx="40" cy="40" r="32" fill="#FFFFFF" />
  
  <!-- Medical Cross -->
  <rect x="37" y="20" width="6" height="40" rx="2" fill="#0EA5E9" />
  <rect x="20" y="37" width="40" height="6" rx="2" fill="#0EA5E9" />
  
  <!-- Chat Bubble -->
  <path d="M60 40C60 28.9543 50.5228 20 39 20C27.4772 20 18 28.9543 18 40C18 45.2533 20.0497 50.0219 23.3994 53.5838C23.1127 55.7446 22.2912 58.7527 20.3211 60.9641C20.0512 61.2675 20.0016 61.6902 20.1946 62.0465C20.3876 62.4028 20.7866 62.6191 21.1822 62.5866C24.8729 62.3507 28.9672 61.0681 31.4736 59.6437C33.7556 60.5151 36.3111 61 39 61C50.5228 61 60 52.0457 60 41C60 40.6654 59.9909 40.3333 59.973 40.0037" 
        stroke="#0EA5E9" 
        stroke-width="4" 
        stroke-linecap="round"
        fill="none" />
  
  <!-- Pulse Line (Heart Rhythm) -->
  <path d="M26 42L32 42L34 36L38 48L42 33L45 42L54 42" 
        stroke="#0EA5E9" 
        stroke-width="2.5" 
        stroke-linecap="round"
        stroke-linejoin="round"
        fill="none" />
</svg>